<svg version="1.2" baseProfile="tiny-ps" xmlns="http://www.w3.org/2000/svg" viewBox="0 0 12 20" width="12" height="20">
	<title>Footer</title>
	<style>
		tspan { white-space:pre }
		.shp0 { fill: #ffffff } 
	</style>
	<g id="Footer">
		<g id="Copy">
			<g id="Up">
				<path id="Arrow" class="shp0" d="M4.99 19.98L4.99 3.01L7 3.01L7 19.98L4.99 19.98ZM4.95 3.14L1.63 5.79C1.2 6.13 0.56 6.06 0.21 5.63C-0.13 5.19 -0.06 4.56 0.37 4.22L5.41 0.21C5.78 -0.08 6.3 -0.08 6.67 0.21L11.7 4.22C11.85 4.34 11.94 4.48 12 4.64L12 5.38C11.96 5.46 11.92 5.55 11.86 5.63C11.51 6.06 10.88 6.13 10.45 5.79L6.96 3.02" />
			</g>
		</g>
	</g>
</svg>